<svg xmlns="http://www.w3.org/2000/svg" viewBox="0 0 64 64">
  <!-- MUNICITRON M-58 · Nazarban Instrument Works · the atomic starburst -->
  <rect width="64" height="64" rx="13" fill="#1E4744"/>
  <g stroke="#C9A227" stroke-width="3.4" stroke-linecap="round">
    <line x1="39.24" y1="33.94" x2="52.28" y2="37.44"/><line x1="37.30" y1="37.30" x2="41.19" y2="41.19"/><line x1="33.94" y1="39.24" x2="37.44" y2="52.28"/><line x1="30.06" y1="39.24" x2="28.64" y2="44.56"/><line x1="26.70" y1="37.30" x2="17.15" y2="46.85"/><line x1="24.76" y1="33.94" x2="19.44" y2="35.36"/><line x1="24.76" y1="30.06" x2="11.72" y2="26.56"/><line x1="26.70" y1="26.70" x2="22.81" y2="22.81"/><line x1="30.06" y1="24.76" x2="26.56" y2="11.72"/><line x1="33.94" y1="24.76" x2="35.36" y2="19.44"/><line x1="37.30" y1="26.70" x2="46.85" y2="17.15"/><line x1="39.24" y1="30.06" x2="44.56" y2="28.64"/>
  </g>
  <g fill="#C9A227">
    <circle cx="55.67" cy="38.34" r="2.4"/><circle cx="38.34" cy="55.67" r="2.4"/><circle cx="14.68" cy="49.32" r="2.4"/><circle cx="8.33" cy="25.66" r="2.4"/><circle cx="25.66" cy="8.33" r="2.4"/><circle cx="49.32" cy="14.68" r="2.4"/>
  </g>
  <circle cx="32" cy="32" r="6" fill="#D96F32"/>
  <circle cx="32" cy="32" r="2.3" fill="#F2E9D2"/>
</svg>
